<svg width="31" height="31" viewBox="0 0 31 31" fill="none" xmlns="http://www.w3.org/2000/svg">
<g id="bell">
<path id="Vector" d="M23.0025 10.2232C23.0025 8.18962 22.1947 6.23936 20.7567 4.80142C19.3188 3.36349 17.3685 2.55566 15.335 2.55566C13.3014 2.55566 11.3512 3.36349 9.91325 4.80142C8.47531 6.23936 7.66749 8.18962 7.66749 10.2232C7.66749 19.1686 3.83374 21.7244 3.83374 21.7244H26.8362C26.8362 21.7244 23.0025 19.1686 23.0025 10.2232Z" stroke="#E9E9E9" stroke-width="2.83" stroke-linecap="round" stroke-linejoin="round"/>
<path id="Vector_2" d="M17.5459 26.8359C17.3212 27.2232 16.9987 27.5447 16.6107 27.7682C16.2227 27.9917 15.7828 28.1093 15.3351 28.1093C14.8873 28.1093 14.4474 27.9917 14.0594 27.7682C13.6714 27.5447 13.3489 27.2232 13.1243 26.8359" stroke="#E9E9E9" stroke-width="2.83" stroke-linecap="round" stroke-linejoin="round"/>
</g>
</svg>
