<svg width="412" height="311" viewBox="0 0 412 311" fill="none" xmlns="http://www.w3.org/2000/svg">
<path d="M0 31H412V291C412 300.428 412 305.142 409.071 308.071C406.142 311 401.428 311 392 311H20C10.5719 311 5.85786 311 2.92893 308.071C0 305.142 0 300.428 0 291V31Z" fill="#E9E9E9"/>
<path d="M412 31L0 31L-9.61655e-07 20C-1.78588e-06 10.5719 -2.198e-06 5.85786 2.92892 2.92893C5.85785 -7.3355e-07 10.5719 -1.14566e-06 20 -1.9699e-06L392 -3.44912e-05C401.428 -3.53154e-05 406.142 -3.57275e-05 409.071 2.9289C412 5.85783 412 10.5719 412 20L412 31Z" fill="url(#paint0_linear_217_411)"/>
<defs>
<linearGradient id="paint0_linear_217_411" x1="118" y1="36.1667" x2="462.718" y2="-25.4649" gradientUnits="userSpaceOnUse">
<stop stop-color="#69912C"/>
<stop offset="1" stop-color="#105E39"/>
</linearGradient>
</defs>
</svg>
