<svg width="32" height="31" viewBox="0 0 32 31" fill="none" xmlns="http://www.w3.org/2000/svg">
<g id="edit">
<path id="Vector" d="M13.0572 5.11133H4.11174C3.43389 5.11133 2.78381 5.3806 2.30449 5.85991C1.82518 6.33923 1.55591 6.98931 1.55591 7.66716V25.558C1.55591 26.2358 1.82518 26.8859 2.30449 27.3652C2.78381 27.8446 3.43389 28.1138 4.11174 28.1138H22.0026C22.6804 28.1138 23.3305 27.8446 23.8098 27.3652C24.2891 26.8859 24.5584 26.2358 24.5584 25.558V16.6126" stroke="#E9E9E9" stroke-width="2.83" stroke-linecap="round" stroke-linejoin="round"/>
<path id="Vector_2" d="M22.6415 3.19439C23.1499 2.686 23.8394 2.40039 24.5584 2.40039C25.2774 2.40039 25.9669 2.686 26.4753 3.19439C26.9837 3.70277 27.2693 4.39229 27.2693 5.11126C27.2693 5.83023 26.9837 6.51975 26.4753 7.02814L14.3351 19.1683L9.22339 20.4463L10.5013 15.3346L22.6415 3.19439Z" stroke="#E9E9E9" stroke-width="2.83" stroke-linecap="round" stroke-linejoin="round"/>
</g>
</svg>
