<svg width="31" height="31" viewBox="0 0 31 31" fill="none" xmlns="http://www.w3.org/2000/svg">
<g id="file-text">
<path id="Vector" d="M17.8907 2.55566H7.66741C6.98956 2.55566 6.33947 2.82494 5.86016 3.30425C5.38085 3.78356 5.11157 4.43365 5.11157 5.1115V25.5582C5.11157 26.236 5.38085 26.8861 5.86016 27.3654C6.33947 27.8447 6.98956 28.114 7.66741 28.114H23.0024C23.6803 28.114 24.3303 27.8447 24.8097 27.3654C25.289 26.8861 25.5582 26.236 25.5582 25.5582V10.2232L17.8907 2.55566Z" stroke="#E9E9E9" stroke-width="2.83" stroke-linecap="round" stroke-linejoin="round"/>
<path id="Vector_2" d="M17.8909 2.55566V10.2232H25.5584" stroke="#E9E9E9" stroke-width="2.83" stroke-linecap="round" stroke-linejoin="round"/>
<path id="Vector_3" d="M20.4467 16.6133H10.2234" stroke="#E9E9E9" stroke-width="2.83" stroke-linecap="round" stroke-linejoin="round"/>
<path id="Vector_4" d="M20.4467 21.7246H10.2234" stroke="#E9E9E9" stroke-width="2.83" stroke-linecap="round" stroke-linejoin="round"/>
<path id="Vector_5" d="M12.7792 11.501H11.5013H10.2234" stroke="#E9E9E9" stroke-width="2.83" stroke-linecap="round" stroke-linejoin="round"/>
</g>
</svg>
