<svg width="36" height="37" viewBox="0 0 36 37" fill="none" xmlns="http://www.w3.org/2000/svg">
<path fill-rule="evenodd" clip-rule="evenodd" d="M3.81934 18.9636C3.81934 10.8799 10.372 4.32721 18.4557 4.32721C26.5394 4.32721 33.0921 10.8799 33.0921 18.9636C33.0921 27.0472 26.5394 33.5999 18.4557 33.5999C10.372 33.5999 3.81934 27.0472 3.81934 18.9636ZM19.9193 14.5727C19.9193 14.1845 19.7651 13.8122 19.4906 13.5377C19.2162 13.2632 18.8439 13.109 18.4557 13.109C18.0675 13.109 17.6952 13.2632 17.4208 13.5377C17.1463 13.8122 16.9921 14.1845 16.9921 14.5727V17.4999H14.0648C13.6766 17.4999 13.3043 17.6541 13.0298 17.9286C12.7554 18.2031 12.6012 18.5754 12.6012 18.9636C12.6012 19.3518 12.7554 19.724 13.0298 19.9985C13.3043 20.273 13.6766 20.4272 14.0648 20.4272H16.9921V23.3545C16.9921 23.7427 17.1463 24.1149 17.4208 24.3894C17.6952 24.6639 18.0675 24.8181 18.4557 24.8181C18.8439 24.8181 19.2162 24.6639 19.4906 24.3894C19.7651 24.1149 19.9193 23.7427 19.9193 23.3545V20.4272H22.8466C23.2348 20.4272 23.6071 20.273 23.8816 19.9985C24.156 19.724 24.3102 19.3518 24.3102 18.9636C24.3102 18.5754 24.156 18.2031 23.8816 17.9286C23.6071 17.6541 23.2348 17.4999 22.8466 17.4999H19.9193V14.5727Z" fill="url(#paint0_linear_12_8618)"/>
<defs>
<linearGradient id="paint0_linear_12_8618" x1="18.4557" y1="4.32721" x2="18.4557" y2="33.5999" gradientUnits="userSpaceOnUse">
<stop stop-color="#749C07"/>
<stop offset="0.485855" stop-color="#003E24"/>
</linearGradient>
</defs>
</svg>
