<svg width="106" height="25" viewBox="0 0 106 25" fill="none" xmlns="http://www.w3.org/2000/svg">
<g clip-path="url(#clip0_217_309)">
<path d="M93.5 0C86.5963 0 81 5.59593 81 12.5009C81 19.4058 86.5963 25 93.5 25C100.404 25 106 19.4041 106 12.5009C106 5.59766 100.402 0 93.5 0Z" fill="url(#paint0_linear_217_309)"/>
<path d="M93.5001 16.9634C95.9618 16.9634 97.9646 14.9625 97.9646 12.5009C97.9646 10.0393 95.9618 8.03665 93.5001 8.03665C91.0383 8.03665 89.0355 10.0393 89.0355 12.5009C89.0355 14.9625 91.0383 16.9634 93.5001 16.9634ZM90.1186 12.5009C90.1186 10.6356 91.6346 9.11794 93.5001 9.11794C95.3655 9.11794 96.8815 10.6356 96.8815 12.5009C96.8815 14.3662 95.3655 15.8821 93.5001 15.8821C91.6346 15.8821 90.1186 14.3662 90.1186 12.5009Z" fill="white"/>
<path d="M97.9524 19.9134H89.0494C87.3787 19.9134 86.0192 18.554 86.0192 16.8834V8.11662C86.0192 6.44601 87.3787 5.08658 89.0494 5.08658H97.9524C99.6231 5.08658 100.983 6.44601 100.983 8.11662V16.8834C100.983 18.554 99.6231 19.9134 97.9524 19.9134ZM89.0477 6.1922C87.9872 6.1922 87.1231 7.05619 87.1231 8.11662V16.8834C87.1231 17.9438 87.9872 18.8078 89.0477 18.8078H97.9507C99.0112 18.8078 99.8752 17.9438 99.8752 16.8834V8.11662C99.8752 7.05619 99.0112 6.1922 97.9507 6.1922H89.0477Z" fill="white"/>
<path d="M98.0237 7.52728C97.6325 7.52728 97.3196 7.84541 97.3196 8.23308C97.3196 8.62074 97.6343 8.93713 98.0237 8.93713C98.4131 8.93713 98.7295 8.62422 98.7295 8.23308C98.7295 7.84193 98.4114 7.52728 98.0237 7.52728Z" fill="white"/>
</g>
<g clip-path="url(#clip1_217_309)">
<path d="M65.2647 12.4983C65.2647 5.59637 59.8329 0 53.1324 0C46.4318 0 41 5.59637 41 12.4983C41 19.4002 46.4318 24.9983 53.1324 24.9983C59.8329 24.9983 65.2647 19.4002 65.2647 12.4983Z" fill="#395196"/>
<path d="M54.2019 9.53905V8.35537C54.2019 7.7792 54.5752 7.64342 54.8371 7.64342H56.4506V5.10722L54.2306 5.09677C51.7656 5.09677 51.2064 6.98892 51.2064 8.20045V9.53731H49.7821V12.4982H51.2199V19.9015H54.0937V12.4982H56.2276L56.4894 9.53731H54.2052L54.2019 9.53905Z" fill="white"/>
</g>
<g clip-path="url(#clip2_217_309)">
<path d="M24.2647 12.5C24.2647 5.59636 18.8329 0 12.1324 0C5.43177 0 0 5.59636 0 12.5C0 19.4036 5.43177 25 12.1324 25C18.8329 25 24.2647 19.4036 24.2647 12.5Z" fill="#3D83D9"/>
<path d="M9.16392 9.44855H6.35596V17.7186H9.16392V9.44855Z" fill="white"/>
<path d="M7.75992 5.31436C6.87968 5.31436 6.19205 6.14816 6.38973 7.08466C6.50461 7.6295 6.93713 8.06816 7.46763 8.17782C8.37321 8.36582 9.1639 7.65909 9.1639 6.76089C9.1639 5.96364 8.53709 5.31436 7.75992 5.31436Z" fill="white"/>
<path d="M18.3954 11.99C18.2061 10.432 17.4492 9.45029 15.4049 9.45029C13.9536 9.45029 13.3758 9.68354 13.043 10.3363V9.45029H10.7689V17.7204H13.1089V13.3912C13.1089 12.3103 13.3083 11.4939 14.6041 11.4939C15.9 11.4939 15.9844 12.4983 15.9844 13.4609V17.7204H18.3937C18.3937 17.7204 18.4376 12.3555 18.3937 11.9917L18.3954 11.99Z" fill="white"/>
</g>
<defs>
<linearGradient id="paint0_linear_217_309" x1="101.701" y1="21.9335" x2="85.3007" y2="3.06542" gradientUnits="userSpaceOnUse">
<stop stop-color="#5D3FD2"/>
<stop offset="0.42" stop-color="#B829A9"/>
<stop offset="0.5" stop-color="#BE289D"/>
<stop offset="0.64" stop-color="#CF257E"/>
<stop offset="0.78" stop-color="#E62256"/>
<stop offset="0.81" stop-color="#E83055"/>
<stop offset="0.87" stop-color="#EE5754"/>
<stop offset="0.95" stop-color="#F89553"/>
<stop offset="1" stop-color="#FFC153"/>
</linearGradient>
<clipPath id="clip0_217_309">
<rect width="25" height="25" fill="white" transform="translate(81)"/>
</clipPath>
<clipPath id="clip1_217_309">
<rect width="24.2647" height="25" fill="white" transform="translate(41)"/>
</clipPath>
<clipPath id="clip2_217_309">
<rect width="24.2647" height="25" fill="white"/>
</clipPath>
</defs>
</svg>
