<svg width="25" height="25" viewBox="0 0 25 25" fill="none" xmlns="http://www.w3.org/2000/svg">
<g clip-path="url(#clip0_217_310)">
<path d="M12.5 0C5.59631 0 0 5.59593 0 12.5009C0 19.4058 5.59631 25 12.5 25C19.4037 25 25 19.4041 25 12.5009C25 5.59766 19.4019 0 12.5 0Z" fill="url(#paint0_linear_217_310)"/>
<path d="M12.5001 16.9634C14.9618 16.9634 16.9646 14.9625 16.9646 12.5009C16.9646 10.0393 14.9618 8.03665 12.5001 8.03665C10.0383 8.03665 8.03552 10.0393 8.03552 12.5009C8.03552 14.9625 10.0383 16.9634 12.5001 16.9634ZM9.11862 12.5009C9.11862 10.6356 10.6346 9.11794 12.5001 9.11794C14.3655 9.11794 15.8815 10.6356 15.8815 12.5009C15.8815 14.3662 14.3655 15.8821 12.5001 15.8821C10.6346 15.8821 9.11862 14.3662 9.11862 12.5009Z" fill="white"/>
<path d="M16.9524 19.9134H8.04941C6.37869 19.9134 5.01917 18.554 5.01917 16.8834V8.11662C5.01917 6.44601 6.37869 5.08658 8.04941 5.08658H16.9524C18.6231 5.08658 19.9827 6.44601 19.9827 8.11662V16.8834C19.9827 18.554 18.6231 19.9134 16.9524 19.9134ZM8.04768 6.1922C6.98718 6.1922 6.12313 7.05619 6.12313 8.11662V16.8834C6.12313 17.9438 6.98718 18.8078 8.04768 18.8078H16.9507C18.0112 18.8078 18.8752 17.9438 18.8752 16.8834V8.11662C18.8752 7.05619 18.0112 6.1922 16.9507 6.1922H8.04768Z" fill="white"/>
<path d="M17.0237 7.52728C16.6325 7.52728 16.3196 7.84541 16.3196 8.23308C16.3196 8.62074 16.6343 8.93713 17.0237 8.93713C17.4131 8.93713 17.7295 8.62422 17.7295 8.23308C17.7295 7.84193 17.4114 7.52728 17.0237 7.52728Z" fill="white"/>
</g>
<defs>
<linearGradient id="paint0_linear_217_310" x1="20.7006" y1="21.9335" x2="4.30067" y2="3.06542" gradientUnits="userSpaceOnUse">
<stop stop-color="#5D3FD2"/>
<stop offset="0.42" stop-color="#B829A9"/>
<stop offset="0.5" stop-color="#BE289D"/>
<stop offset="0.64" stop-color="#CF257E"/>
<stop offset="0.78" stop-color="#E62256"/>
<stop offset="0.81" stop-color="#E83055"/>
<stop offset="0.87" stop-color="#EE5754"/>
<stop offset="0.95" stop-color="#F89553"/>
<stop offset="1" stop-color="#FFC153"/>
</linearGradient>
<clipPath id="clip0_217_310">
<rect width="25" height="25" fill="white"/>
</clipPath>
</defs>
</svg>
