<svg width="25" height="25" viewBox="0 0 25 25" fill="none" xmlns="http://www.w3.org/2000/svg">
<g clip-path="url(#clip0_217_319)">
<path d="M24.2647 12.5C24.2647 5.59636 18.8329 0 12.1324 0C5.43177 0 0 5.59636 0 12.5C0 19.4036 5.43177 25 12.1324 25C18.8329 25 24.2647 19.4036 24.2647 12.5Z" fill="#3D83D9"/>
<path d="M9.16392 9.44855H6.35596V17.7186H9.16392V9.44855Z" fill="white"/>
<path d="M7.75992 5.31436C6.87968 5.31436 6.19205 6.14816 6.38973 7.08466C6.50461 7.6295 6.93713 8.06816 7.46763 8.17782C8.37321 8.36582 9.1639 7.65909 9.1639 6.76089C9.1639 5.96364 8.53709 5.31436 7.75992 5.31436Z" fill="white"/>
<path d="M18.3954 11.99C18.2061 10.432 17.4492 9.45029 15.4049 9.45029C13.9536 9.45029 13.3758 9.68354 13.043 10.3363V9.45029H10.7689V17.7204H13.1089V13.3912C13.1089 12.3103 13.3083 11.4939 14.6041 11.4939C15.9 11.4939 15.9844 12.4983 15.9844 13.4609V17.7204H18.3937C18.3937 17.7204 18.4376 12.3555 18.3937 11.9917L18.3954 11.99Z" fill="white"/>
</g>
<defs>
<clipPath id="clip0_217_319">
<rect width="24.2647" height="25" fill="white"/>
</clipPath>
</defs>
</svg>
