<svg width="25" height="25" viewBox="0 0 25 25" fill="none" xmlns="http://www.w3.org/2000/svg">
<g clip-path="url(#clip0_217_316)">
<path d="M24.2647 12.4983C24.2647 5.59637 18.8329 0 12.1324 0C5.43177 0 0 5.59637 0 12.4983C0 19.4002 5.43177 24.9983 12.1324 24.9983C18.8329 24.9983 24.2647 19.4002 24.2647 12.4983Z" fill="#395196"/>
<path d="M13.2019 9.53905V8.35537C13.2019 7.7792 13.5752 7.64342 13.8371 7.64342H15.4506V5.10722L13.2306 5.09677C10.7656 5.09677 10.2064 6.98892 10.2064 8.20045V9.53731H8.7821V12.4982H10.2199V19.9015H13.0937V12.4982H15.2276L15.4894 9.53731H13.2052L13.2019 9.53905Z" fill="white"/>
</g>
<defs>
<clipPath id="clip0_217_316">
<rect width="24.2647" height="25" fill="white"/>
</clipPath>
</defs>
</svg>
