<svg width="32" height="31" viewBox="0 0 32 31" fill="none" xmlns="http://www.w3.org/2000/svg">
<g id="user-check">
<path id="Vector" d="M21.4466 26.8364V24.2806C21.4466 22.9249 20.908 21.6247 19.9494 20.6661C18.9908 19.7075 17.6906 19.1689 16.3349 19.1689H7.3895C6.0338 19.1689 4.73363 19.7075 3.775 20.6661C2.81638 21.6247 2.27783 22.9249 2.27783 24.2806V26.8364" stroke="#E9E9E9" stroke-width="2.83" stroke-linecap="round" stroke-linejoin="round"/>
<path id="Vector_2" d="M11.8624 14.0573C14.6855 14.0573 16.9741 11.7687 16.9741 8.94565C16.9741 6.12256 14.6855 3.83398 11.8624 3.83398C9.0393 3.83398 6.75073 6.12256 6.75073 8.94565C6.75073 11.7687 9.0393 14.0573 11.8624 14.0573Z" stroke="#E9E9E9" stroke-width="2.83" stroke-linecap="round" stroke-linejoin="round"/>
<path id="Vector_3" d="M22.7246 14.0573L25.2804 16.6131L30.3921 11.5015" stroke="#E9E9E9" stroke-width="2" stroke-linecap="round" stroke-linejoin="round"/>
</g>
</svg>
