<svg width="32" height="31" viewBox="0 0 32 31" fill="none" xmlns="http://www.w3.org/2000/svg">
<g id="users">
<path id="Vector" d="M22.7245 25.8364V23.2806C22.7245 21.9249 22.1859 20.6247 21.2273 19.6661C20.2687 18.7075 18.9685 18.1689 17.6128 18.1689H7.3895C6.0338 18.1689 4.73363 18.7075 3.775 19.6661C2.81638 20.6247 2.27783 21.9249 2.27783 23.2806V25.8364" stroke="#E9E9E9" stroke-width="2.83" stroke-linecap="round" stroke-linejoin="round"/>
<path id="Vector_2" d="M12.5013 13.0573C15.3244 13.0573 17.613 10.7687 17.613 7.94565C17.613 5.12256 15.3244 2.83398 12.5013 2.83398C9.67822 2.83398 7.38965 5.12256 7.38965 7.94565C7.38965 10.7687 9.67822 13.0573 12.5013 13.0573Z" stroke="#E9E9E9" stroke-width="2.83" stroke-linecap="round" stroke-linejoin="round"/>
<path id="Vector_3" d="M30.3921 25.8363V23.2805C30.3913 22.1479 30.0143 21.0477 29.3204 20.1526C28.6265 19.2574 27.655 18.6181 26.5583 18.335" stroke="#E9E9E9" stroke-width="2.83" stroke-linecap="round" stroke-linejoin="round"/>
<path id="Vector_4" d="M21.4468 3C22.5463 3.28153 23.5209 3.921 24.2168 4.81759C24.9128 5.71419 25.2906 6.81692 25.2906 7.95193C25.2906 9.08693 24.9128 10.1897 24.2168 11.0863C23.5209 11.9829 22.5463 12.6223 21.4468 12.9039" stroke="#E9E9E9" stroke-width="2.83" stroke-linecap="round" stroke-linejoin="round"/>
</g>
</svg>
