<svg width="293" height="427" viewBox="0 0 293 427" fill="none" xmlns="http://www.w3.org/2000/svg">
<path d="M25.9999 184.37C24.7899 179.37 23.8299 170 30.5299 163.59L113.68 84.0599C121.34 76.3799 122 73.9599 133.85 80.8699L222.67 132.63C229.82 136.8 233.13 141.97 234.34 145.5C231.572 140.302 227.387 135.995 222.27 133.08L133.83 81.3199C122.03 74.4199 121.37 76.8399 113.75 84.5099L30.9999 164C24.2899 170.45 25.2399 179.82 25.9999 184.37Z" fill="#1E2023"/>
<path fill-rule="evenodd" clip-rule="evenodd" d="M223.1 149.61L262.48 245.83L89.66 348.4L46.45 182.49L223.1 149.61Z" fill="url(#paint0_linear_26_85)"/>
<path fill-rule="evenodd" clip-rule="evenodd" d="M46.4501 182.49C45.6201 178.49 44.8101 170.49 50.4501 165.1L120.8 97.8201C127.27 91.3301 127.8 89.2801 137.86 95.1201L213 138.91C217.414 141.309 220.943 145.059 223.07 149.61L46.4501 182.49Z" fill="url(#paint1_linear_26_85)"/>
<mask id="mask0_26_85" style="mask-type:luminance" maskUnits="userSpaceOnUse" x="198" y="144" width="81" height="111">
<path d="M198 207.65L226.7 150C228.88 145.62 232.46 144 234.34 144.65L278.17 254.65C276.86 251.34 273.86 249.83 270.3 247.76L208 209.49C204.985 207.725 201.446 207.073 198 207.65Z" fill="white"/>
</mask>
<g mask="url(#mask0_26_85)">
<mask id="mask1_26_85" style="mask-type:luminance" maskUnits="userSpaceOnUse" x="192" y="139" width="92" height="121">
<path d="M283.18 139.52H192.96V259.65H283.18V139.52Z" fill="white"/>
</mask>
<g mask="url(#mask1_26_85)">
<rect x="182" y="131" width="98" height="157" fill="url(#paint2_linear_26_85)"/>
</g>
</g>
<mask id="mask2_26_85" style="mask-type:luminance" maskUnits="userSpaceOnUse" x="25" y="181" width="127" height="203">
<path d="M25.77 185.5C28.71 183.2 33.93 180.4 40.23 182.73L151.41 223.92C148.27 226.4 146.96 229.48 145.47 232.45L81.35 359.56C76.88 368.42 78.8 377.45 80 383.44C51.68 279.05 33.45 212.62 25.77 185.5Z" fill="white"/>
</mask>
<g mask="url(#mask2_26_85)">
<mask id="mask3_26_85" style="mask-type:luminance" maskUnits="userSpaceOnUse" x="20" y="176" width="137" height="213">
<path d="M156.41 176.85H20.77V388.44H156.41V176.85Z" fill="white"/>
</mask>
<g mask="url(#mask3_26_85)">
<rect x="4" y="166" width="169" height="271" fill="url(#paint3_linear_26_85)"/>
</g>
</g>
<mask id="mask4_26_85" style="mask-type:luminance" maskUnits="userSpaceOnUse" x="78" y="207" width="201" height="177">
<path d="M80 383.45C78.8 377.45 76.88 368.45 81.35 359.56L145.47 232.45C146.96 229.45 148.27 226.45 151.41 223.92C166.83 218.23 182.41 212.92 197.96 207.65C201.406 207.073 204.945 207.725 207.96 209.49L270.32 247.76C273.88 249.83 276.88 251.34 278.19 254.65C194.27 310.24 129.11 352.72 80 383.45Z" fill="white"/>
</mask>
<g mask="url(#mask4_26_85)">
<mask id="mask5_26_85" style="mask-type:luminance" maskUnits="userSpaceOnUse" x="73" y="202" width="211" height="187">
<path d="M283.18 202.45H73.55V388.45H283.18V202.45Z" fill="white"/>
</mask>
<g mask="url(#mask5_26_85)">
<path d="M70.9204 383.229C70.229 375.209 71.8025 367.157 75.4619 359.987L142.953 227.759C144.723 224.29 147.773 221.646 151.458 220.386L197.061 204.785C201.801 203.163 207.015 203.715 211.31 206.292L282.477 248.993C288.182 252.417 288.329 260.633 282.75 264.258L82.2277 394.526C77.7958 397.405 71.8941 394.523 71.4401 389.257L70.9204 383.229Z" fill="#58820D"/>
</g>
</g>
<path fill-rule="evenodd" clip-rule="evenodd" d="M278.18 254.65C276.87 251.34 273.87 249.83 270.31 247.76L208 209.49L270 248.24C274.26 250.9 276.53 252.39 278.18 254.65Z" fill="#4A6D82"/>
<path fill-rule="evenodd" clip-rule="evenodd" d="M145.47 232.45L81.35 359.56C76.88 368.43 78.8 377.46 80 383.45C78.7224 375.185 80.003 366.727 83.67 359.21L145.47 232.45Z" fill="#4A6D82"/>
<path d="M60.86 89.5804C64.73 92.0704 69.58 93.1804 73.97 94.8004C76.81 99.8004 82.89 102.8 87.9 105.07C99.9 110.42 113.23 113.38 126.31 115.62C127.991 118.038 128.882 120.916 128.86 123.86C129 131.86 126.66 139.75 127.19 147.78C127.233 148.165 127.414 148.52 127.7 148.78C127.3 149.6 126.93 150.44 126.59 151.29C125.9 153.05 128.15 154.36 129.59 153.58C143.82 145.75 150.76 129.58 165.11 122.13C165.445 121.976 165.722 121.72 165.902 121.398C166.081 121.077 166.154 120.706 166.11 120.34C171.38 120.84 176.83 123.87 181.28 125.82C186.66 128.18 193.28 131.4 199.28 129.96C202.051 129.223 204.508 127.605 206.28 125.35C209.866 125.067 213.315 123.846 216.28 121.81C220.13 119.03 222.39 114.34 224.28 110.1C233.63 88.6504 229.36 64.2804 233.15 41.7604C233.226 41.456 233.231 41.1384 233.166 40.8315C233.101 40.5247 232.968 40.2366 232.775 39.9891C232.582 39.7415 232.336 39.541 232.054 39.4026C231.773 39.2643 231.464 39.1917 231.15 39.1904C216.59 38.4504 202.21 36.0104 187.78 34.1904C180.69 33.2804 173.36 32.0804 166.2 32.1204C162.65 32.1204 159.1 32.3004 155.56 32.5404C146.89 31.7204 138.22 30.8004 129.56 30.1204C120.9 29.4404 111.89 29.7304 103.44 28.0104C97.22 26.7504 90.9 24.5704 84.44 25.3404C74.63 26.4904 71 35.5304 67.75 43.4504C63.2 54.5904 59 66.3804 57.6 78.3904C57.13 82.4204 57 87.1204 60.86 89.5804ZM209.36 120.65C210.956 117.554 212.333 114.35 213.48 111.06C217.86 99.3204 220.6 86.9204 222.64 74.5704C224.15 65.3704 225.85 55.6704 225.29 46.3104C225.18 44.5704 222.47 44.5604 222.58 46.3104C223.04 53.9904 221.85 61.9304 220.71 69.5004C218.99 82.0284 216.165 94.3798 212.27 106.41C210.712 111.491 208.557 116.368 205.85 120.94L205.56 121.39C203.63 121.55 201.69 121.55 199.76 121.39C189.41 120.67 179.41 117.56 169.14 116.28C168.911 116.237 168.675 116.244 168.449 116.3C168.223 116.356 168.011 116.46 167.829 116.605C167.647 116.75 167.498 116.933 167.393 117.141C167.288 117.349 167.229 117.577 167.22 117.81C164.512 117.277 161.708 117.544 159.15 118.58C151.35 121.98 145.76 128.58 140.06 134.95C141.737 131.717 142.693 128.159 142.86 124.52C143 118.41 141.43 113.83 134.86 112.9C132.12 112.51 129.38 112.05 126.66 111.54C121.24 106.28 112.48 104.07 105.66 102.05C96.38 99.3404 87 97.0004 78 93.4404C75.39 89.3204 76.21 84.1104 76.89 79.2204C77.89 72.2204 79.25 65.2804 80.67 58.3604C81.99 51.9404 83.1 43.3604 88.18 38.6904C93.26 34.0204 99.47 36.8704 105.6 37.9304C115.6 39.6704 125.91 39.3004 136.03 38.3704C145.38 37.5104 154.97 35.9504 164.41 36.1204C165.98 36.2604 167.55 36.3804 169.12 36.5004C171.04 36.6404 172.98 36.7304 174.92 36.8004C185.16 37.8004 195.35 39.3004 205.55 40.6704C208 41.3304 210.44 42.0304 212.86 42.8004C216.86 44.0804 220.73 45.0704 224.93 44.6204C225.125 44.5958 225.313 44.5326 225.484 44.4345C225.654 44.3364 225.803 44.2053 225.922 44.0489C226.042 43.8925 226.128 43.7139 226.178 43.5236C226.227 43.3332 226.238 43.135 226.21 42.9404L228.68 43.1204C225.68 63.8804 228.88 85.9604 221.44 105.89C219.73 110.47 217.34 116.59 212.87 119.16C211.764 119.795 210.585 120.295 209.36 120.65ZM179.89 122.31C187.22 123.87 194.57 125.61 202.02 125.58C200.576 126.845 198.729 127.555 196.81 127.58C190.88 127.57 185.29 124.79 179.89 122.31ZM133.89 145.75L134.54 144.66C137.9 141.55 140.96 138.06 144.09 134.77C147.63 131.04 151.67 126.16 156.34 123.1C148.06 129.76 142.06 139 133.85 145.75H133.89ZM130.11 116.25C131.35 116.46 132.6 116.66 133.84 116.85C135.43 117.1 137.76 117.32 138.33 119.15C139.199 122.234 139.171 125.502 138.25 128.57C136.43 134.41 132.89 139.45 129.87 144.74C129.95 139.62 130.93 134.57 131.38 129.46C131.71 125.18 131.9 120.29 130.07 116.25H130.11ZM84.21 98.7604C94.83 102.29 105.99 104.27 116.35 108.59C117.53 109.09 118.66 109.59 119.74 110.19C115.7 109.317 111.7 108.374 107.74 107.36C102.505 106.122 97.3629 104.521 92.35 102.57C89.5517 101.49 86.8318 100.217 84.21 98.7604ZM60.14 80.0004C61.32 67.7304 65.68 55.5204 70.36 44.2104C72.3 39.5104 74.36 33.1104 78.93 30.2104C86.93 25.1604 96.25 29.7404 104.69 30.9904C114.99 32.5204 125.69 32.4704 136.05 33.3604L141.17 33.8304C129.03 35.0504 116.71 36.0804 104.67 33.6404C100.82 32.8604 96.74 31.5204 92.77 31.9504C89.29 32.3304 86.39 34.5304 84.11 37.0704C79.81 41.8704 78.44 49.3804 77.11 55.4904C75.67 62.3604 74.19 69.3104 73.22 76.2704C72.54 81.0804 71.37 86.5404 72.59 91.4104C69.4222 90.4982 66.3324 89.3345 63.35 87.9304C60.18 86.2304 59.81 83.3604 60.14 80.0004Z" fill="#003E24"/>
<g opacity="0.58">
<path d="M80.2901 40.28C81.4901 32.28 82.1201 22.93 91.3601 20.63C96.4401 19.36 101.99 19.68 107.18 19.38C116.29 18.87 125.38 17.92 134.47 17.14C152.72 15.58 170.58 15.28 188.67 18.42C205.44 21.33 221.31 28.82 238.55 29C240.73 29 240.73 32.4 238.55 32.38C218.99 32.17 200.55 23.53 181.4 20.59C159.4 17.21 136.94 20.47 114.94 22.23C107.52 22.82 99.5601 22.3 92.2601 23.89C86.7801 25.08 85.3501 29.95 84.4301 34.89C82.1201 47.48 79.8601 60.67 79.7401 73.48C79.7401 77.9 79.9201 82.73 81.9001 86.77C83.7701 90.6 87.9801 92.77 91.6801 94.43C101.2 98.73 111.75 100.07 121.43 103.9C125.43 105.48 129.76 107.33 133.04 110.2C135.62 112.46 136.34 115.81 136.42 119.1C136.73 132.53 130.54 146.25 136.02 159.29C142.65 157.63 147.6 152.46 151.9 147.36C156.56 141.84 160.5 135.73 165.44 130.45C168.64 127.03 172.81 122.77 177.81 124.33C187.05 127.22 195.69 131.86 205.53 132.45C221.53 133.45 225.91 116.13 227.53 103.55C228.66 94.65 229.88 85.85 231.53 77.02C233.53 66.54 235.53 56.02 236.14 45.39C236.24 43.47 237 37.96 235.33 36.59C233.66 35.22 236.05 32.83 237.72 34.2C240 36.07 239.55 40.39 239.57 42.97C239.492 48.0189 239.048 53.0555 238.24 58.04C236.82 68.44 234.53 78.7 232.79 89.04C230.55 102.32 231.11 117.5 222.35 128.64C211.6 142.32 191.75 133.21 178.89 128.3C176.55 127.41 175.19 126.75 173.06 128.3C170.158 130.462 167.535 132.974 165.25 135.78C160.47 141.46 156.38 147.67 151.32 153.12C147.07 157.71 141.82 161.8 135.5 162.86C135.14 162.956 134.759 162.931 134.414 162.791C134.069 162.65 133.78 162.4 133.59 162.08C129.78 154 130.08 145.17 131.1 136.5C131.6 132.25 132.33 128.03 132.78 123.78C133.09 120.9 133.36 117.84 132.42 115.05C131.68 112.88 129.42 111.55 127.56 110.49C124.562 108.811 121.42 107.405 118.17 106.29C111.66 104.03 104.89 102.55 98.3301 100.47C92.5701 98.64 86.3301 96.47 81.8901 92.25C78.1601 88.75 77.0701 83.78 76.5801 78.88C75.2801 66.06 78.4001 52.92 80.2901 40.28Z" fill="#003E24"/>
</g>
<path opacity="0.14" d="M142.68 398.62C198.157 398.62 243.13 393.176 243.13 386.46C243.13 379.744 198.157 374.3 142.68 374.3C87.203 374.3 42.23 379.744 42.23 386.46C42.23 393.176 87.203 398.62 142.68 398.62Z" fill="#003E24"/>
<defs>
<linearGradient id="paint0_linear_26_85" x1="158.5" y1="231.62" x2="143.01" y2="164.52" gradientUnits="userSpaceOnUse">
<stop stop-color="#697381"/>
<stop offset="1" stop-color="#DEE6EF"/>
</linearGradient>
<linearGradient id="paint1_linear_26_85" x1="122.78" y1="104.32" x2="134.57" y2="165.02" gradientUnits="userSpaceOnUse">
<stop stop-color="#697381"/>
<stop offset="1" stop-color="#DEE6EF"/>
</linearGradient>
<linearGradient id="paint2_linear_26_85" x1="186.836" y1="135.359" x2="234.582" y2="323.375" gradientUnits="userSpaceOnUse">
<stop stop-color="#003422"/>
<stop offset="0.220402" stop-color="#005F32" stop-opacity="0.98"/>
<stop offset="0.731005" stop-color="#C7B100"/>
</linearGradient>
<linearGradient id="paint3_linear_26_85" x1="12.3388" y1="173.525" x2="94.8237" y2="498.025" gradientUnits="userSpaceOnUse">
<stop stop-color="#003422"/>
<stop offset="0.220402" stop-color="#005F32" stop-opacity="0.98"/>
<stop offset="0.731005" stop-color="#C7B100"/>
</linearGradient>
</defs>
</svg>
